<svg width="67" height="176" viewBox="0 0 67 176" fill="none" xmlns="http://www.w3.org/2000/svg">
<path d="M10.1946 9.39343C15.3571 3.8443 28.0666 -4.40336 37.6042 6.99902C47.1418 18.4014 32.2043 37.7902 23.5434 46.0593C19.3861 48.2519 10.7709 51.8874 9.56891 48.8876C8.06641 45.1378 7.49064 37.4168 21.9828 31.6911C31.2713 28.3398 51.0758 25.3706 55.9852 40.3042C58.2457 46.7833 57.8298 61.4974 38.0831 68.5208L13.378 77.6648M13.378 77.6648C4.18456 77.4862 -8.73919 72.3282 13.1133 53.1249C19.8363 50.3529 36.038 44.8998 47.0612 45.2633C53.287 46.9761 65.0226 54.3122 62.1585 69.9542C62.1995 73.1289 57.4442 80.7276 38.0943 85.7249C33.6799 86.4382 23.8149 87.8762 19.6704 87.9222L4.75094 89.2301L13.378 77.6648ZM13.378 77.6648C19.4975 76.321 33.8732 74.273 42.4204 76.8317C53.1045 80.03 57.5318 78.0974 65.2832 92.8342C66.3393 100.218 64.3712 115.108 48.0507 115.6C31.7302 116.093 21.4182 112.672 18.3023 110.901L19.1057 97.4054M19.1057 97.4054C30.849 99.2027 56.2332 99.9088 63.8241 88.3549C67.6555 80.0423 68.9429 62.6715 43.4411 59.689C37.2358 59.5636 23.9825 59.5553 20.6112 60.5259L19.7572 86.4633C31.7297 88.2742 56.7349 94.9606 60.9752 107.219C63.1994 114.306 63.2021 128.947 45.419 130.817C38.8698 130.671 24.1342 128.891 17.5856 122.937M19.1057 97.4054L17.5856 122.937M19.1057 97.4054C26.4491 99.6728 42.5665 105.684 48.2896 111.588C55.2649 118.104 65.121 133.82 48.7427 144.558C43.7044 146.088 30.5251 146.767 18.1144 137.244M17.5856 122.937L18.1144 137.244M17.5856 122.937C25.4926 129.264 41.5027 144.42 42.2878 154.422C42.4991 160.535 40.2086 173.113 29.3562 174.516C26.5758 174.839 19.7688 174.385 14.7843 169.988L18.1144 137.244" stroke="#3000AC"/>
</svg>
